<svg width="377" height="313" viewBox="0 0 377 313" fill="none" xmlns="http://www.w3.org/2000/svg">
<path opacity="0.8" d="M189.523 33.0469C189.523 33.0469 471.859 97.5065 342.953 160.584L341.067 151.16C340.941 151.286 456.516 107.684 189.523 33.0469Z" fill="url(#paint0_linear_697_6847)"/>
<path d="M66.5269 275.933C65.0177 276.184 46.1534 282.09 50.8066 282.467C55.4598 282.718 193.546 313 193.546 313L280.322 269.022L66.5269 275.933Z" fill="url(#paint1_radial_697_6847)"/>
<path d="M342.576 215.619L213.293 209.965L208.766 288.749L352.637 287.492L342.576 215.619Z" fill="url(#paint2_radial_697_6847)"/>
<path d="M270.01 258.592C320.088 258.592 360.685 218.031 360.685 167.997C360.685 117.962 320.088 77.4014 270.01 77.4014C219.932 77.4014 179.336 117.962 179.336 167.997C179.336 218.031 219.932 258.592 270.01 258.592Z" fill="url(#paint3_radial_697_6847)"/>
<path d="M318.555 127.411C322.076 127.914 321.699 123.013 324.843 122.762C325.849 121.003 321.951 118.49 324.717 117.108C324.466 121.631 328.742 118.741 324.592 117.233C313.147 111.328 322.328 110.071 316.92 102.029C337.545 101.15 358.673 147.39 355.277 171.138C355.026 198.153 336.162 226.299 310.506 238.613C295.163 247.158 316.166 220.017 319.435 214.111C322.328 210.216 320.567 205.692 321.448 201.797C322.579 199.661 326.604 195.892 322.076 195.138C319.435 189.986 315.788 193.253 311.638 191.494C309.5 189.483 306.733 193.63 305.35 190.489C293.277 171.641 302.961 178.677 300.32 167.243C300.068 161.714 308.997 157.819 311.135 153.295C312.141 151.159 314.405 147.138 316.417 147.138C320.819 149.023 325.22 146.636 330.377 147.892C333.898 151.411 329.496 153.798 338.551 159.578C341.318 158.322 341.066 156.311 345.594 160.835C352.259 163.976 350.373 152.919 344.839 152.416C344.085 150.908 342.953 143.369 340.941 147.138C341.821 148.018 342.701 152.416 340.563 150.782C338.425 146.008 337.042 139.348 331.886 137.212C332.892 141.233 339.431 143.872 336.162 148.646C335.533 150.782 332.389 147.892 334.401 148.018C335.533 148.144 335.784 147.264 335.659 146.385C333.521 141.484 330.377 137.589 325.346 137.966C324.34 141.107 320.944 139.976 321.825 143.243C314.279 154.049 305.602 130.427 317.8 136.458C322.579 136.961 317.675 129.924 315.914 128.542C317.297 127.411 318.807 129.17 318.555 127.411ZM330.251 109.568C330.125 110.322 329.245 106.804 328.239 107.181C327.61 108.061 328.993 109.568 330.251 109.568ZM349.995 172.395C349.87 157.568 348.864 182.07 350.247 188.352C351.379 183.075 351.505 177.421 349.995 172.395ZM326.604 121.757C326.101 121.38 326.226 121.38 326.604 121.757C326.478 123.767 328.113 121.631 328.616 122.385C329.371 123.642 330.251 122.636 331.257 122.636C334.149 122.636 331.634 121.128 331.886 120.5C334.275 118.364 330.125 117.987 332.012 116.479C332.766 116.102 332.389 115.223 331.76 115.097C327.233 115.851 326.855 109.443 324.717 106.804C321.322 110.322 333.521 118.113 326.604 121.757ZM354.774 167.117C354.649 167.369 354.397 167.745 354.649 167.997C355.026 167.62 355.152 167.494 354.774 167.117ZM218.7 169.505C222.599 166.112 227.378 162.091 225.617 169.002C227.378 163.348 231.15 168.625 234.043 169.756C238.067 167.117 239.954 173.149 241.966 175.536C244.481 177.546 248.128 177.169 250.14 180.059C251.901 181.819 252.656 189.735 253.788 189.106C254.794 186.97 256.554 189.986 258.064 189.86C259.447 190.112 257.812 192.499 259.95 192.122C260.956 191.996 261.962 192.625 263.094 192.876C270.388 194.635 273.029 201.546 264.603 205.567C261.459 210.467 261.333 218.383 253.159 217.378C248.38 218.886 247.374 230.823 240.96 227.179C245.362 233.336 236.055 230.32 237.187 235.346C237.313 239.116 238.067 244.016 241.714 246.153C233.037 246.404 227.755 228.059 227.378 218.76C228.132 204.436 219.706 202.3 215.053 189.986C213.418 188.478 213.67 185.965 215.179 183.955C213.167 178.929 220.209 174.908 218.7 169.505ZM250.644 187.222C250.644 186.845 250.518 186.468 250.14 186.97C250.14 187.347 250.266 187.599 250.644 187.222ZM257.435 86.0715C260.076 83.5584 263.849 86.1971 264.603 89.2128C263.974 90.4693 263.22 90.9719 264.477 92.1028C267.496 93.3593 262.088 95.998 261.585 93.6106C259.07 92.2284 261.459 96.6263 259.573 97.3802C257.309 94.7415 257.183 100.145 255.045 95.621C254.668 94.2389 254.039 93.6106 252.53 94.3645C249.637 92.731 260.956 93.485 258.692 88.9615C255.548 87.7049 250.518 91.0976 248.506 93.108C248.757 94.3645 249.134 95.2441 247.248 94.3645C242.846 92.6054 236.055 94.9928 233.288 99.7676C232.408 101.275 234.42 100.773 234.672 101.527C234.672 103.537 237.313 103.286 237.564 104.291C233.54 114.846 238.822 105.548 242.595 104.165C246.116 99.265 253.033 90.218 253.285 102.029C262.842 99.5163 254.416 106.05 259.698 107.935C260.076 109.191 259.321 109.317 258.064 108.94C256.303 109.443 258.818 109.82 259.698 109.191C266.49 114.092 250.769 112.584 252.53 114.595C251.398 116.228 248.254 109.82 243.098 115.474C240.583 116.982 244.355 115.348 245.613 114.846C252.278 113.212 247.248 115.851 249.009 118.741C255.8 119.244 251.524 120.123 247.248 121.254C243.349 122.008 248.631 119.746 246.368 119.495C239.954 120.123 236.432 125.275 231.025 127.16C227.629 134.825 219.455 134.196 220.083 145.379C217.694 141.484 219.706 135.453 213.292 136.709C212.412 138.971 211.28 137.84 210.148 137.086C204.237 135.955 202.477 146.51 203.106 151.034C205.621 157.316 208.136 147.013 211.783 149.526C211.532 151.913 206.627 156.939 211.154 156.939C216.688 158.573 208.765 168.374 218.197 168.122C219.58 170.259 217.317 168.876 216.436 169.253C213.795 171.515 210.148 166.112 209.771 163.599C209.142 161.086 206.375 160.583 204.992 158.447C203.231 155.18 198.201 155.557 196.566 151.034C195.56 146.133 195.937 125.149 194.805 138.468C195.308 141.987 194.051 147.515 193.422 140.856C194.176 108.94 227.378 87.8306 251.398 84.438C250.769 87.0767 240.583 87.328 244.733 89.2128C251.147 88.2076 258.315 80.7941 249.889 89.9667C252.907 90.218 256.051 84.9406 257.435 86.0715ZM246.242 93.3593C246.745 92.731 247.248 92.4797 246.368 91.8515C245.865 92.4797 245.613 92.3541 246.242 93.3593ZM292.397 94.3645C298.559 89.2128 283.216 80.6684 274.916 82.9302C280.072 84.1867 265.106 81.0454 266.364 83.5584C267.496 85.5689 273.406 81.548 272.778 84.061C271.646 84.9406 272.023 85.0662 273.155 85.3175C277.682 85.9458 271.52 89.0871 275.167 90.218C276.425 91.2232 274.035 93.108 272.652 93.108C270.388 94.4902 271.52 101.652 274.287 102.658C277.934 106.678 279.569 99.7676 281.833 98.1341C283.719 97.3802 296.044 95.998 292.397 94.3645ZM320.19 125.024C321.196 124.018 312.141 110.825 312.015 114.72C311.512 117.359 315.788 118.238 315.914 121.003C312.896 122.511 316.291 123.013 316.04 124.395C314.531 125.903 320.19 125.778 320.19 125.024ZM335.533 223.033C331.257 226.425 325.723 230.697 323.208 234.969C327.107 232.331 334.653 226.048 335.533 223.033ZM223.102 152.667C226.371 153.044 215.304 144.374 214.298 148.269C214.173 149.023 215.556 149.526 216.059 149.275C218.952 148.144 219.706 153.295 223.102 152.667ZM234.546 157.693C237.439 156.939 227.503 154.049 226.497 154.426C224.359 159.704 232.282 156.06 234.546 157.693ZM294.786 100.019C295.289 102.909 300.697 105.422 302.08 102.532C300.445 100.27 297.05 100.019 294.786 100.019ZM259.447 114.72C253.536 116.982 256.932 117.108 260.076 119.495C263.471 119.244 260.579 115.474 259.447 114.72ZM309.752 119.118C310.758 120.123 309.123 121.631 310.506 122.259C316.04 123.516 312.267 114.092 309.752 119.118ZM264.352 83.6841C263.974 84.1867 262.591 83.4328 261.459 84.061C262.842 85.3175 266.615 85.0662 264.352 83.6841ZM220.083 154.929C219.958 155.683 221.09 156.06 221.718 156.06C221.97 155.18 220.586 154.301 220.083 154.929ZM273.784 90.5949C273.155 90.5949 272.778 91.2232 273.406 91.7258C273.658 91.6002 276.047 90.9719 273.784 90.5949ZM257.938 83.3071C258.818 83.4328 259.573 83.5584 260.453 83.6841C259.573 83.3071 258.818 82.4275 257.938 83.3071ZM256.806 90.3436C255.548 90.7206 256.429 91.7258 257.309 90.8463C257.057 90.5949 256.932 90.3436 256.806 90.3436ZM259.447 114.595C260.076 114.469 260.579 114.343 260.579 113.589C259.447 113.338 259.698 114.469 259.447 114.595ZM247.625 95.8723C247.248 96.1237 246.493 96.5006 247.122 96.8776C247.877 96.7519 248.003 96.375 247.625 95.8723ZM258.064 83.5584C257.435 83.4328 256.932 83.3071 256.429 83.4328C256.932 84.1867 257.56 83.4328 258.064 83.5584ZM257.56 85.4432C257.183 85.1919 256.932 84.5636 256.554 84.9406C256.932 85.0662 257.183 85.3175 257.56 85.4432ZM245.613 95.3697C245.362 95.4954 245.362 95.621 245.487 95.7467C245.739 95.7467 245.865 95.621 245.613 95.3697ZM310.632 113.464C310.632 113.715 310.884 113.715 311.009 113.589C311.009 113.338 310.758 113.212 310.632 113.464ZM263.597 83.6841C263.849 83.8097 264.477 83.5584 264.226 83.8097C263.974 83.3071 263.849 82.9301 263.597 83.6841ZM318.681 127.285C318.303 127.034 318.303 127.034 318.681 127.285V127.285ZM251.398 84.3123C251.65 84.3123 251.775 84.438 251.775 84.1867C251.65 84.1867 251.524 84.5636 251.398 84.3123Z" fill="url(#paint4_radial_697_6847)"/>
<path d="M57.7245 281.21L192.416 308.98L277.556 267.012L221.089 259.347L182.732 277.692L92.0575 262.74L150.914 243.012L133.685 238.991L54.2031 263.619L57.7245 281.21Z" fill="url(#paint5_linear_697_6847)"/>
<path opacity="0.46" d="M182.732 277.691L153.932 272.916L58.7305 279.45L193.799 307.848L277.556 267.011L229.389 261.356L211.154 264.121L182.732 277.691Z" fill="url(#paint6_linear_697_6847)"/>
<path d="M192.418 308.979L192.292 310.11L57.8523 282.341L57.7266 281.21L192.418 308.979Z" fill="url(#paint7_linear_697_6847)"/>
<path d="M192.289 310.11L277.556 268.394V267.012L192.415 308.98L192.289 310.11Z" fill="url(#paint8_linear_697_6847)"/>
<path d="M60.9961 279.702L191.914 305.838L270.893 267.514L155.066 231.703L60.9961 279.702Z" fill="#BEBEBE"/>
<path d="M60.9961 279.702L190.279 303.073L269.132 265.378C268.378 263.87 267.874 262.362 267.371 260.854L267.246 260.477L60.9961 279.702Z" fill="white"/>
<path d="M64.0112 278.32L60.2384 262.864L55.7109 264.623L58.855 280.707L60.9929 279.702L64.0112 278.32Z" fill="url(#paint9_linear_697_6847)"/>
<path d="M189.397 300.937L60.9941 279.702L58.1016 263.493L193.296 285.985L189.397 300.937Z" fill="#BEBEBE"/>
<path d="M58.1016 263.493C58.1016 263.493 67.1564 271.032 60.9941 279.828L58.1016 263.493Z" fill="#BEBEBE"/>
<path d="M190.152 303.073C190.152 303.073 190.655 305.084 191.913 305.838L270.892 267.514L269.005 265.378L190.152 303.073Z" fill="#DFDFDF"/>
<path d="M268.501 264.247L267.998 263.116L230.772 279.451L267.369 261.357C265.482 256.08 268.249 253.315 268.249 253.315L191.786 287.367C191.786 287.367 185.12 294.529 189.396 301.189" fill="#DFDFDF"/>
<path d="M193.547 288.623L270.387 251.933L154.812 231.828L54.3281 263.744L193.547 288.623Z" fill="url(#paint10_linear_697_6847)"/>
<path d="M54.2031 263.618L54.4546 265.126L193.422 290.005L193.547 288.623L54.2031 263.618Z" fill="url(#paint11_linear_697_6847)"/>
<path d="M193.422 290.005L193.548 288.623L270.262 251.933V253.315L193.422 290.005Z" fill="url(#paint12_linear_697_6847)"/>
<path opacity="0.46" d="M201.093 280.33L246.367 247.661L154.687 231.703L54.2031 263.619L124.001 276.184L201.093 280.33Z" fill="url(#paint13_linear_697_6847)"/>
<path d="M200.717 272.414L43.6406 259.221L92.059 230.823L252.28 243.012L252.028 244.771L200.717 272.414Z" fill="url(#paint14_linear_697_6847)"/>
<path d="M200.716 272.415L43.6397 259.221L42.5078 239.745L202.351 251.179L200.088 258.719C198.83 263.242 199.962 267.64 200.716 272.415Z" fill="url(#paint15_linear_697_6847)"/>
<path d="M255.674 221.651L107.904 212.479L42.5078 239.619L202.351 251.054L255.674 221.651Z" fill="url(#paint16_linear_697_6847)"/>
<path d="M251.777 231.075L238.697 237.232L252.154 229.441C252.657 227.431 253.789 224.918 254.795 223.41L201.975 253.315L200.969 270.027L250.645 242.761C250.77 242.635 250.645 236.729 251.777 231.075Z" fill="#DFDFDF"/>
<path d="M255.676 221.65L255.299 224.289L202.102 253.315L202.353 251.053L255.676 221.65Z" fill="url(#paint17_linear_697_6847)"/>
<path d="M252.026 244.771L252.277 243.012L201.092 269.901L200.715 272.414L252.026 244.771Z" fill="url(#paint18_linear_697_6847)"/>
<path d="M202.1 253.315L201.094 270.027C201.094 269.902 203.483 262.865 202.1 253.315Z" fill="#BEBEBE"/>
<path d="M252.153 229.441L251.775 231.075L223.102 244.645L252.153 229.441Z" fill="white"/>
<path d="M0 231.075L94.6987 233.588L98.4716 231.955L132.679 174.28C132.679 174.28 85.1408 162.971 47.2865 167.118L0 231.075Z" fill="url(#paint19_linear_697_6847)"/>
<path d="M94.8245 233.587V238.865C94.8245 238.865 38.6089 232.959 2.89252 236.98L0 231.074C0 231.074 53.5746 226.802 94.8245 233.587Z" fill="url(#paint20_linear_697_6847)"/>
<path d="M7.67188 227.054L9.43254 229.19C9.43254 229.19 57.2221 226.677 94.9507 233.588L98.7235 231.954C98.5978 231.954 51.0597 210.468 7.67188 227.054Z" fill="#D8D4CF"/>
<path d="M101.993 234.216C101.993 234.216 166.509 240.624 203.483 251.682L244.733 184.332L134.314 171.892L98.5977 231.954L101.993 234.216Z" fill="url(#paint21_linear_697_6847)"/>
<path d="M101.992 234.216L104.633 239.996C104.633 239.996 174.18 247.787 204.237 257.964L203.482 251.682C203.482 251.682 171.539 239.996 101.992 234.216Z" fill="url(#paint22_linear_697_6847)"/>
<path d="M204.239 257.964L203.484 251.682L244.734 184.332L243.98 193.63L204.239 257.964Z" fill="url(#paint23_linear_697_6847)"/>
<path d="M101.992 234.216C101.992 234.216 138.338 233.211 199.71 249.043L238.821 185.84L237.187 183.955C237.187 183.955 121.611 224.541 98.7227 231.954L101.992 234.216Z" fill="#D8D4CF"/>
<path d="M53.0719 163.096C53.0719 163.096 88.6626 148.269 134.314 171.892C134.314 171.892 178.96 148.018 239.451 180.311L200.088 243.64C200.088 243.64 151.669 221.65 98.5978 231.954C98.5978 231.954 54.078 216.624 7.67188 227.053L53.0719 163.096Z" fill="white"/>
<path d="M98.5971 231.954L94.8242 233.588L101.993 234.216L98.5971 231.954Z" fill="#1E244D"/>
<path d="M94.8242 233.588V238.865C94.8242 238.865 100.484 238.362 104.634 239.996L101.993 234.216L94.8242 233.588Z" fill="url(#paint24_linear_697_6847)"/>
<path d="M53.0719 163.097L7.67188 227.054C16.4752 225.043 25.1528 224.038 33.5788 223.661C33.5788 223.661 53.1977 180.185 68.6664 159.327C58.857 160.584 53.0719 163.097 53.0719 163.097Z" fill="#EAF3F9"/>
<path d="M46.6562 182.322C46.6562 182.322 79.8574 176.291 113.059 189.861" stroke="#84B1C9" stroke-width="0.5" stroke-miterlimit="10" stroke-linecap="round"/>
<path d="M43.2617 186.72C43.2617 186.72 76.8402 180.563 110.67 193.882" stroke="#84B1C9" stroke-width="0.5" stroke-miterlimit="10" stroke-linecap="round"/>
<path d="M39.8672 191.243C39.8672 191.243 73.8229 185.086 108.282 198.028" stroke="#84B1C9" stroke-width="0.5" stroke-miterlimit="10" stroke-linecap="round"/>
<path d="M36.4688 195.641C36.4688 195.641 70.8018 189.358 105.764 202.049" stroke="#84B1C9" stroke-width="0.5" stroke-miterlimit="10" stroke-linecap="round"/>
<path d="M33.0742 200.039C33.0742 200.039 67.7845 193.631 103.375 206.07" stroke="#84B1C9" stroke-width="0.5" stroke-miterlimit="10" stroke-linecap="round"/>
<path d="M29.5547 204.562C29.5547 204.562 64.6423 198.154 100.862 210.342" stroke="#84B1C9" stroke-width="0.5" stroke-miterlimit="10" stroke-linecap="round"/>
<path d="M26.1562 208.96C26.1562 208.96 61.6211 202.426 98.4694 214.363" stroke="#84B1C9" stroke-width="0.5" stroke-miterlimit="10" stroke-linecap="round"/>
<path d="M22.7617 213.358C22.7617 213.358 58.6039 206.698 96.0809 218.384" stroke="#84B1C9" stroke-width="0.5" stroke-miterlimit="10" stroke-linecap="round"/>
<path d="M142.237 229.818C140.476 208.457 147.519 179.683 151.418 166.238C140.476 168.751 134.314 172.018 134.314 172.018L98.5977 232.08C113.815 228.939 128.781 228.687 142.237 229.818Z" fill="#EAF3F9"/>
<path d="M136.828 187.347C136.828 187.347 170.029 181.316 203.23 194.887" stroke="#84B1C9" stroke-width="0.5" stroke-miterlimit="10" stroke-linecap="round"/>
<path d="M133.434 191.745C133.434 191.745 167.012 185.588 200.842 198.907" stroke="#84B1C9" stroke-width="0.5" stroke-miterlimit="10" stroke-linecap="round"/>
<path d="M130.039 196.268C130.039 196.268 163.995 190.111 198.454 203.054" stroke="#84B1C9" stroke-width="0.5" stroke-miterlimit="10" stroke-linecap="round"/>
<path d="M126.641 200.666C126.641 200.666 160.974 194.384 195.935 207.075" stroke="#84B1C9" stroke-width="0.5" stroke-miterlimit="10" stroke-linecap="round"/>
<path d="M123.121 205.064C123.121 205.064 157.831 198.656 193.422 211.096" stroke="#84B1C9" stroke-width="0.5" stroke-miterlimit="10" stroke-linecap="round"/>
<path d="M119.727 209.588C119.727 209.588 154.814 203.18 191.034 215.368" stroke="#84B1C9" stroke-width="0.5" stroke-miterlimit="10" stroke-linecap="round"/>
<path d="M116.328 213.986C116.328 213.986 151.793 207.452 188.641 219.389" stroke="#84B1C9" stroke-width="0.5" stroke-miterlimit="10" stroke-linecap="round"/>
<path d="M112.934 218.383C112.934 218.383 148.776 211.724 186.253 223.41" stroke="#84B1C9" stroke-width="0.5" stroke-miterlimit="10" stroke-linecap="round"/>
<path d="M225.616 10.0518L126.516 13.3187L228.006 44.6062L225.616 10.0518Z" fill="url(#paint25_linear_697_6847)"/>
<path d="M210.149 18.8479L228.007 44.6066L188.77 32.4184L210.149 18.8479Z" fill="url(#paint26_linear_697_6847)"/>
<path d="M126.516 13.3191L225.616 10.0522L257.685 0L126.516 13.3191Z" fill="url(#paint27_linear_697_6847)"/>
<path d="M126.516 13.3191L210.147 18.8478L192.415 52.5226L126.516 13.3191Z" fill="url(#paint28_linear_697_6847)"/>
<path d="M96.457 167.494L157.452 149.777L101.865 188.981L96.457 167.494Z" fill="#394986"/>
<path d="M107.652 169.756L101.867 188.981L123.372 173.777L107.652 169.756Z" fill="#4A60AB"/>
<path d="M157.453 149.777L96.4584 167.494L74.9531 167.62L157.453 149.777Z" fill="#AFBBDF"/>
<path d="M157.454 149.777L107.652 169.756L125.133 186.719L157.454 149.777Z" fill="#AFBBDF"/>
<defs>
<linearGradient id="paint0_linear_697_6847" x1="362.885" y1="165.058" x2="213.085" y2="-4.63861" gradientUnits="userSpaceOnUse">
<stop stop-color="#F896BC" stop-opacity="0"/>
<stop offset="0.0450717" stop-color="#EB8AAF" stop-opacity="0.0581415"/>
<stop offset="0.1805" stop-color="#CA6A8F" stop-opacity="0.2329"/>
<stop offset="0.3198" stop-color="#B05275" stop-opacity="0.4125"/>
<stop offset="0.4627" stop-color="#9E4063" stop-opacity="0.5968"/>
<stop offset="0.6114" stop-color="#933559" stop-opacity="0.7887"/>
<stop offset="0.7752" stop-color="#8F3255"/>
</linearGradient>
<radialGradient id="paint1_radial_697_6847" cx="0" cy="0" r="1" gradientUnits="userSpaceOnUse" gradientTransform="translate(169.329 288.48) scale(54.2836 53.1679)">
<stop offset="1.33195e-07" stop-color="#3E3E3C"/>
<stop offset="1" stop-color="#F7F2EA" stop-opacity="0"/>
</radialGradient>
<radialGradient id="paint2_radial_697_6847" cx="0" cy="0" r="1" gradientUnits="userSpaceOnUse" gradientTransform="translate(272.579 247.88) rotate(-90) scale(23.0939 60.5847)">
<stop offset="1.33195e-07" stop-color="#3E3E3C"/>
<stop offset="1" stop-color="#F7F2EA" stop-opacity="0"/>
</radialGradient>
<radialGradient id="paint3_radial_697_6847" cx="0" cy="0" r="1" gradientUnits="userSpaceOnUse" gradientTransform="translate(269.985 167.972) scale(90.7351 90.656)">
<stop offset="0.0459107" stop-color="#E6EDFC"/>
<stop offset="1" stop-color="#83A9FF"/>
</radialGradient>
<radialGradient id="paint4_radial_697_6847" cx="0" cy="0" r="1" gradientUnits="userSpaceOnUse" gradientTransform="translate(274.575 164.365) scale(81.4741 81.4031)">
<stop stop-color="#243C7B"/>
<stop offset="0.5979" stop-color="#4A66AD"/>
</radialGradient>
<linearGradient id="paint5_linear_697_6847" x1="101.823" y1="293.107" x2="238.586" y2="249.918" gradientUnits="userSpaceOnUse">
<stop stop-color="#AAC1FF"/>
<stop offset="0.4839" stop-color="#D0DDFF"/>
<stop offset="0.6444" stop-color="#CBD9FF"/>
<stop offset="0.8332" stop-color="#BDCFFF"/>
<stop offset="1" stop-color="#AAC1FF"/>
</linearGradient>
<linearGradient id="paint6_linear_697_6847" x1="58.7497" y1="284.58" x2="277.59" y2="284.58" gradientUnits="userSpaceOnUse">
<stop stop-color="#243C7B"/>
<stop offset="0.514" stop-color="#4A66AD"/>
<stop offset="1" stop-color="#243C7B"/>
</linearGradient>
<linearGradient id="paint7_linear_697_6847" x1="60.8236" y1="282.758" x2="192.842" y2="309.359" gradientUnits="userSpaceOnUse">
<stop stop-color="#AAC1FF"/>
<stop offset="0.4839" stop-color="#D0DDFF"/>
<stop offset="0.6444" stop-color="#CBD9FF"/>
<stop offset="0.8332" stop-color="#BDCFFF"/>
<stop offset="0.9852" stop-color="#AAC1FF"/>
</linearGradient>
<linearGradient id="paint8_linear_697_6847" x1="200.326" y1="306.602" x2="276.012" y2="267.376" gradientUnits="userSpaceOnUse">
<stop stop-color="#AAC1FF"/>
<stop offset="0.4839" stop-color="#D0DDFF"/>
<stop offset="0.6444" stop-color="#CBD9FF"/>
<stop offset="0.8332" stop-color="#BDCFFF"/>
<stop offset="1" stop-color="#AAC1FF"/>
</linearGradient>
<linearGradient id="paint9_linear_697_6847" x1="53.887" y1="273.025" x2="61.9524" y2="271.201" gradientUnits="userSpaceOnUse">
<stop stop-color="#AAC1FF"/>
<stop offset="0.4478" stop-color="#CBD9FF"/>
<stop offset="1" stop-color="#AAC1FF"/>
</linearGradient>
<linearGradient id="paint10_linear_697_6847" x1="135.705" y1="272.272" x2="243.981" y2="238.118" gradientUnits="userSpaceOnUse">
<stop stop-color="#AAC1FF"/>
<stop offset="0.4839" stop-color="#D0DDFF"/>
<stop offset="0.6444" stop-color="#CBD9FF"/>
<stop offset="0.8332" stop-color="#BDCFFF"/>
<stop offset="1" stop-color="#AAC1FF"/>
</linearGradient>
<linearGradient id="paint11_linear_697_6847" x1="54.1799" y1="276.836" x2="193.493" y2="276.836" gradientUnits="userSpaceOnUse">
<stop stop-color="#AAC1FF"/>
<stop offset="0.4839" stop-color="#D0DDFF"/>
<stop offset="0.6444" stop-color="#CBD9FF"/>
<stop offset="0.8332" stop-color="#BDCFFF"/>
<stop offset="1" stop-color="#AAC1FF"/>
</linearGradient>
<linearGradient id="paint12_linear_697_6847" x1="193.399" y1="270.952" x2="270.288" y2="270.952" gradientUnits="userSpaceOnUse">
<stop stop-color="#AAC1FF"/>
<stop offset="0.4839" stop-color="#D0DDFF"/>
<stop offset="0.6444" stop-color="#CBD9FF"/>
<stop offset="0.8332" stop-color="#BDCFFF"/>
<stop offset="1" stop-color="#AAC1FF"/>
</linearGradient>
<linearGradient id="paint13_linear_697_6847" x1="54.1799" y1="256.031" x2="246.354" y2="256.031" gradientUnits="userSpaceOnUse">
<stop stop-color="#243C7B"/>
<stop offset="0.514" stop-color="#4A66AD"/>
<stop offset="1" stop-color="#243C7B"/>
</linearGradient>
<linearGradient id="paint14_linear_697_6847" x1="43.5809" y1="251.653" x2="252.245" y2="251.653" gradientUnits="userSpaceOnUse">
<stop offset="1.38522e-07" stop-color="#D17095"/>
<stop offset="0.1173" stop-color="#B7577B"/>
<stop offset="0.2473" stop-color="#A14366"/>
<stop offset="0.3724" stop-color="#933659"/>
<stop offset="0.4862" stop-color="#8F3255"/>
<stop offset="0.5995" stop-color="#95375A"/>
<stop offset="0.7459" stop-color="#A5466A"/>
<stop offset="0.9097" stop-color="#BF5F84"/>
<stop offset="1" stop-color="#D17095"/>
</linearGradient>
<linearGradient id="paint15_linear_697_6847" x1="120.746" y1="268.316" x2="122.5" y2="244.597" gradientUnits="userSpaceOnUse">
<stop offset="1.38522e-07" stop-color="#D17095"/>
<stop offset="0.1173" stop-color="#B7577B"/>
<stop offset="0.2473" stop-color="#A14366"/>
<stop offset="0.3724" stop-color="#933659"/>
<stop offset="0.4862" stop-color="#8F3255"/>
<stop offset="0.5995" stop-color="#95375A"/>
<stop offset="0.7459" stop-color="#A5466A"/>
<stop offset="0.9097" stop-color="#BF5F84"/>
<stop offset="1" stop-color="#D17095"/>
</linearGradient>
<linearGradient id="paint16_linear_697_6847" x1="42.4964" y1="231.742" x2="255.636" y2="231.742" gradientUnits="userSpaceOnUse">
<stop offset="1.38522e-07" stop-color="#D17095"/>
<stop offset="0.1173" stop-color="#B7577B"/>
<stop offset="0.2473" stop-color="#A14366"/>
<stop offset="0.3724" stop-color="#933659"/>
<stop offset="0.4862" stop-color="#8F3255"/>
<stop offset="0.5995" stop-color="#95375A"/>
<stop offset="0.7459" stop-color="#A5466A"/>
<stop offset="0.9097" stop-color="#BF5F84"/>
<stop offset="1" stop-color="#D17095"/>
</linearGradient>
<linearGradient id="paint17_linear_697_6847" x1="202.07" y1="237.46" x2="255.638" y2="237.46" gradientUnits="userSpaceOnUse">
<stop offset="1.38522e-07" stop-color="#D17095"/>
<stop offset="0.1173" stop-color="#B7577B"/>
<stop offset="0.2473" stop-color="#A14366"/>
<stop offset="0.3724" stop-color="#933659"/>
<stop offset="0.4862" stop-color="#8F3255"/>
<stop offset="0.5995" stop-color="#95375A"/>
<stop offset="0.7459" stop-color="#A5466A"/>
<stop offset="0.9097" stop-color="#BF5F84"/>
<stop offset="1" stop-color="#D17095"/>
</linearGradient>
<linearGradient id="paint18_linear_697_6847" x1="200.654" y1="257.749" x2="252.243" y2="257.749" gradientUnits="userSpaceOnUse">
<stop offset="1.38522e-07" stop-color="#D17095"/>
<stop offset="0.1173" stop-color="#B7577B"/>
<stop offset="0.2473" stop-color="#A14366"/>
<stop offset="0.3724" stop-color="#933659"/>
<stop offset="0.4862" stop-color="#8F3255"/>
<stop offset="0.5995" stop-color="#95375A"/>
<stop offset="0.7459" stop-color="#A5466A"/>
<stop offset="0.9097" stop-color="#BF5F84"/>
<stop offset="1" stop-color="#D17095"/>
</linearGradient>
<linearGradient id="paint19_linear_697_6847" x1="32.4018" y1="235.929" x2="100.877" y2="174.456" gradientUnits="userSpaceOnUse">
<stop stop-color="#243C7B"/>
<stop offset="0.514" stop-color="#4A66AD"/>
<stop offset="1" stop-color="#243C7B"/>
</linearGradient>
<linearGradient id="paint20_linear_697_6847" x1="0" y1="234.267" x2="94.8387" y2="234.267" gradientUnits="userSpaceOnUse">
<stop offset="0.0530726" stop-color="#243C7B"/>
<stop offset="0.514" stop-color="#4A66AD"/>
<stop offset="1" stop-color="#243C7B"/>
</linearGradient>
<linearGradient id="paint21_linear_697_6847" x1="126.179" y1="235.753" x2="238.951" y2="172.307" gradientUnits="userSpaceOnUse">
<stop stop-color="#243C7B"/>
<stop offset="0.514" stop-color="#4A66AD"/>
<stop offset="1" stop-color="#243C7B"/>
</linearGradient>
<linearGradient id="paint22_linear_697_6847" x1="101.952" y1="246.052" x2="204.235" y2="246.052" gradientUnits="userSpaceOnUse">
<stop offset="0.0530726" stop-color="#243C7B"/>
<stop offset="0.514" stop-color="#4A66AD"/>
<stop offset="1" stop-color="#243C7B"/>
</linearGradient>
<linearGradient id="paint23_linear_697_6847" x1="203.483" y1="221.127" x2="244.707" y2="221.127" gradientUnits="userSpaceOnUse">
<stop offset="0.0530726" stop-color="#243C7B"/>
<stop offset="0.514" stop-color="#4A66AD"/>
<stop offset="1" stop-color="#243C7B"/>
</linearGradient>
<linearGradient id="paint24_linear_697_6847" x1="94.8057" y1="236.731" x2="104.669" y2="236.731" gradientUnits="userSpaceOnUse">
<stop offset="0.0530726" stop-color="#243C7B"/>
<stop offset="0.3903" stop-color="#4A66AD"/>
<stop offset="1" stop-color="#243C7B"/>
</linearGradient>
<linearGradient id="paint25_linear_697_6847" x1="127.513" y1="31.5379" x2="227.045" y2="26.3761" gradientUnits="userSpaceOnUse">
<stop offset="1.38522e-07" stop-color="#D17095"/>
<stop offset="0.1173" stop-color="#B7577B"/>
<stop offset="0.2473" stop-color="#A14366"/>
<stop offset="0.3724" stop-color="#933659"/>
<stop offset="0.4862" stop-color="#8F3255"/>
<stop offset="0.5995" stop-color="#95375A"/>
<stop offset="0.7459" stop-color="#A5466A"/>
<stop offset="0.9097" stop-color="#BF5F84"/>
<stop offset="1" stop-color="#D17095"/>
</linearGradient>
<linearGradient id="paint26_linear_697_6847" x1="188.799" y1="33.3044" x2="227.303" y2="31.3076" gradientUnits="userSpaceOnUse">
<stop offset="1.38522e-07" stop-color="#D17095"/>
<stop offset="0.1173" stop-color="#B7577B"/>
<stop offset="0.2473" stop-color="#A14366"/>
<stop offset="0.3724" stop-color="#933659"/>
<stop offset="0.4862" stop-color="#8F3255"/>
<stop offset="0.5995" stop-color="#95375A"/>
<stop offset="0.7459" stop-color="#A5466A"/>
<stop offset="0.9097" stop-color="#BF5F84"/>
<stop offset="1" stop-color="#D17095"/>
</linearGradient>
<linearGradient id="paint27_linear_697_6847" x1="126.448" y1="11.0091" x2="257.863" y2="4.19386" gradientUnits="userSpaceOnUse">
<stop offset="1.38522e-07" stop-color="#D17095"/>
<stop offset="0.1173" stop-color="#B7577B"/>
<stop offset="0.2473" stop-color="#A14366"/>
<stop offset="0.3724" stop-color="#933659"/>
<stop offset="0.4862" stop-color="#8F3255"/>
<stop offset="0.5995" stop-color="#95375A"/>
<stop offset="0.7459" stop-color="#A5466A"/>
<stop offset="0.9097" stop-color="#BF5F84"/>
<stop offset="1" stop-color="#D17095"/>
</linearGradient>
<linearGradient id="paint28_linear_697_6847" x1="127.67" y1="34.5583" x2="210.793" y2="30.2475" gradientUnits="userSpaceOnUse">
<stop offset="1.38522e-07" stop-color="#D17095"/>
<stop offset="0.5244" stop-color="#A14366"/>
<stop offset="1" stop-color="#D17095"/>
</linearGradient>
</defs>
</svg>
